<svg width="40" height="40" viewBox="0 0 40 40" fill="none" xmlns="http://www.w3.org/2000/svg">
<g clip-path="url(#clip0_3205_178)">
<path d="M11.5253 17.0864H37.2662C37.625 17.0863 37.9803 17.1571 38.3116 17.2948C38.643 17.4324 38.9438 17.6343 39.1969 17.8886V17.8933C39.4508 18.1457 39.6524 18.4457 39.7902 18.7762C39.9279 19.1067 39.999 19.4612 39.9994 19.8192V37.2664C39.9994 38.0164 39.6912 38.7021 39.1969 39.1964C38.9439 39.4509 38.6431 39.6529 38.3117 39.7906C37.9804 39.9283 37.6251 39.9991 37.2662 39.9989H11.5253C11.1666 39.9987 10.8114 39.9277 10.4802 39.79C10.1489 39.6523 9.84812 39.4506 9.59498 39.1964C9.34056 38.9435 9.13867 38.6428 9.00094 38.3116C8.86321 37.9804 8.79237 37.6252 8.79248 37.2664V19.8192C8.79248 19.0689 9.10029 18.3833 9.59498 17.8886C9.84824 17.6346 10.1491 17.433 10.4803 17.2954C10.8115 17.1578 11.1666 17.0867 11.5253 17.0864ZM37.2662 18.3358H11.5253C11.3308 18.3363 11.1383 18.3752 10.9589 18.4504C10.7795 18.5255 10.6168 18.6354 10.48 18.7736C10.3416 18.9104 10.2317 19.0732 10.1565 19.2527C10.0813 19.4321 10.0424 19.6247 10.0419 19.8192V37.2664C10.0419 37.6742 10.2109 38.0471 10.48 38.3161C10.617 38.4537 10.7799 38.5629 10.9593 38.6373C11.1387 38.7116 11.3311 38.7498 11.5253 38.7495H37.2662C37.4611 38.7498 37.6541 38.7117 37.8342 38.6373C38.0143 38.5629 38.178 38.4538 38.3159 38.3161C38.4537 38.1782 38.5629 38.0146 38.6374 37.8344C38.7118 37.6543 38.7501 37.4613 38.75 37.2664V19.8192C38.7502 19.6243 38.712 19.4313 38.6375 19.2512C38.563 19.071 38.4537 18.9074 38.3159 18.7696V18.7739C38.0379 18.4945 37.6604 18.3369 37.2662 18.3358Z" fill="#1FA8AD"/>
<path d="M19.1776 11.8767H29.6189C30.2132 11.8767 30.7595 12.1195 31.1501 12.5142C31.5404 12.9089 31.7879 13.4514 31.7879 14.0455V18.3355H27.9014V15.6811H20.8954V18.3358H17.0085V14.0455C17.0085 13.7606 17.0647 13.4786 17.1737 13.2154C17.2827 12.9523 17.4424 12.7132 17.6439 12.5118C17.8453 12.3104 18.0844 12.1507 18.3476 12.0417C18.6107 11.9327 18.8928 11.8767 19.1776 11.8767ZM29.6185 13.1261H19.1776C18.9257 13.1261 18.696 13.2298 18.5267 13.3992C18.3552 13.5706 18.2586 13.803 18.2582 14.0455V17.0861H19.646V14.4317H29.1507V17.0864H30.5385V14.0458C30.5385 13.7939 30.4345 13.5642 30.2698 13.3995H30.2651C30.1811 13.313 30.0806 13.2442 29.9696 13.1972C29.8585 13.1502 29.7391 13.1261 29.6185 13.1261Z" fill="#1FA8AD"/>
<path d="M6.90125 33.9047C7.24406 33.9047 7.52594 34.1819 7.52594 34.5291C7.52512 34.6945 7.45903 34.8528 7.34204 34.9698C7.22506 35.0867 7.06665 35.1527 6.90125 35.1534H1.87406C1.36219 35.1534 0.89375 34.9409 0.550938 34.6028V34.5984C0.376554 34.425 0.238122 34.2188 0.14358 33.9918C0.0490382 33.7647 0.000245491 33.5213 0 33.2753L0 1.87375C0 1.36188 0.2125 0.893438 0.550938 0.550938C0.724355 0.376527 0.930507 0.238077 1.15756 0.143533C1.38462 0.0489885 1.62811 0.000211328 1.87406 0L19.4463 0C19.7153 0 19.9669 0.0521875 20.2016 0.15625C20.4369 0.264841 20.6491 0.417971 20.8263 0.607188L25.5416 5.65219C25.5544 5.66531 25.5631 5.67813 25.5763 5.69125C25.7204 5.85362 25.8349 6.04011 25.9144 6.24219C25.9947 6.45883 26.0358 6.68802 26.0359 6.91906V9.98156C26.0359 10.1472 25.97 10.3061 25.8529 10.4232C25.7357 10.5403 25.5769 10.6062 25.4113 10.6063C25.3289 10.6067 25.2473 10.5908 25.171 10.5596C25.0948 10.5284 25.0255 10.4825 24.9671 10.4245C24.9086 10.3664 24.8622 10.2974 24.8305 10.2214C24.7988 10.1454 24.7824 10.0639 24.7822 9.98156V6.91906C24.7822 6.83219 24.7738 6.75438 24.7475 6.68469C24.7216 6.62789 24.6896 6.57404 24.6522 6.52406C24.6434 6.51563 24.6344 6.51125 24.6259 6.5025L19.915 1.4575C19.8528 1.39152 19.7794 1.33714 19.6981 1.29688C19.6183 1.26451 19.5327 1.24836 19.4466 1.24938H1.87406C1.79222 1.24929 1.71121 1.26578 1.63592 1.29784C1.56062 1.3299 1.49259 1.37688 1.43594 1.43594L1.43156 1.43156C1.31875 1.54406 1.24938 1.70469 1.24938 1.87375V33.2753C1.24938 33.4488 1.31875 33.605 1.43156 33.7178L1.43594 33.7222C1.54875 33.8309 1.70469 33.9047 1.87406 33.9047H6.90125Z" fill="#1FA8AD"/>
<path d="M22.1316 28.4736L11.4128 26.4386C10.6885 26.3043 10.02 25.9877 9.53909 25.5061C9.07878 25.0465 8.79253 24.4436 8.79253 23.719H10.0419C10.0419 24.0877 10.1897 24.3915 10.4238 24.6258C10.7232 24.9205 11.1613 25.1246 11.6428 25.2155L22.3616 27.2499L22.1316 28.4736ZM39.9991 23.719C39.9991 24.4433 39.7128 25.0421 39.2528 25.5018V25.5061C38.7713 25.9877 38.1035 26.3046 37.3835 26.4386L26.6644 28.4905L26.4303 27.2674L37.1491 25.2155C37.635 25.1202 38.0732 24.9208 38.3722 24.6258C38.4931 24.508 38.5889 24.3669 38.6538 24.211C38.7187 24.0552 38.7513 23.8878 38.7497 23.719H39.9991ZM15.9197 5.58239C16.2666 5.58239 16.5444 5.86021 16.5444 6.20708C16.5443 6.37273 16.4785 6.53158 16.3613 6.64871C16.2442 6.76584 16.0854 6.83169 15.9197 6.83177H7.20097C7.11727 6.83442 7.03389 6.82022 6.95579 6.79001C6.87769 6.75981 6.80645 6.71422 6.74631 6.65595C6.68616 6.59768 6.63835 6.52793 6.60569 6.45082C6.57303 6.37371 6.55621 6.29082 6.55621 6.20708C6.55621 6.12334 6.57303 6.04045 6.60569 5.96335C6.63835 5.88624 6.68616 5.81648 6.74631 5.75821C6.80645 5.69994 6.87769 5.65435 6.95579 5.62415C7.03389 5.59394 7.11727 5.57975 7.20097 5.58239H15.9197ZM4.22472 5.58239C4.5719 5.58239 4.85409 5.86021 4.85409 6.20708C4.8531 6.37326 4.78632 6.53229 4.66837 6.64936C4.55042 6.76643 4.3909 6.83202 4.22472 6.83177H3.75659C3.41347 6.83177 3.13159 6.54989 3.13159 6.20708C3.13167 6.04137 3.19756 5.88248 3.31476 5.76534C3.43196 5.6482 3.59089 5.58239 3.75659 5.58239H4.22472ZM11.8116 11.2521C12.1544 11.2521 12.4363 11.5336 12.4363 11.8768C12.4363 12.2236 12.1544 12.5011 11.8116 12.5011H7.20065C7.03921 12.4949 6.88645 12.4264 6.77444 12.3099C6.66243 12.1935 6.59986 12.0382 6.59986 11.8766C6.59986 11.715 6.66243 11.5597 6.77444 11.4433C6.88645 11.3269 7.03921 11.2583 7.20065 11.2521H11.8116ZM4.22503 11.2521C4.5719 11.2521 4.85409 11.5336 4.85409 11.8768C4.85409 12.2236 4.57222 12.5011 4.22503 12.5011H3.75659C3.59094 12.5011 3.43206 12.4354 3.31487 12.3183C3.19768 12.2012 3.13176 12.0424 3.13159 11.8768C3.13159 11.534 3.41347 11.2521 3.75659 11.2521H4.22503ZM15.9197 8.41927C16.2666 8.41927 16.5444 8.69708 16.5444 9.04395C16.5443 9.20961 16.4785 9.36845 16.3613 9.48558C16.2442 9.60272 16.0854 9.66856 15.9197 9.66864H7.20097C7.11727 9.67129 7.03389 9.65709 6.95579 9.62689C6.87769 9.59669 6.80645 9.5511 6.74631 9.49283C6.68616 9.43456 6.63835 9.3648 6.60569 9.28769C6.57303 9.21058 6.55621 9.1277 6.55621 9.04395C6.55621 8.96022 6.57303 8.87733 6.60569 8.80022C6.63835 8.72311 6.68616 8.65335 6.74631 8.59508C6.80645 8.53681 6.87769 8.49122 6.95579 8.46102C7.03389 8.43082 7.11727 8.41662 7.20097 8.41927H15.9197ZM4.22472 8.41927C4.5719 8.41927 4.85409 8.69708 4.85409 9.04395C4.85302 9.21011 4.78622 9.36909 4.66828 9.48615C4.55035 9.6032 4.39088 9.66881 4.22472 9.66864H3.75659C3.41347 9.66864 3.13159 9.38677 3.13159 9.04395C3.13167 8.87825 3.19756 8.71936 3.31476 8.60222C3.43196 8.48507 3.59089 8.41927 3.75659 8.41927H4.22472ZM20.0885 0.22958L25.775 6.40239C25.8866 6.52431 25.9451 6.68555 25.9378 6.85064C25.9305 7.01573 25.8579 7.17114 25.736 7.28271C25.6215 7.38868 25.4713 7.4476 25.3153 7.44771H21.3985C21.0808 7.44758 20.7663 7.38468 20.473 7.26262C20.1797 7.14056 19.9134 6.96175 19.6894 6.73645L19.6503 6.69739C19.2185 6.2486 18.9775 5.64989 18.9778 5.02708V0.62458C18.9779 0.458874 19.0438 0.299983 19.161 0.18284C19.2782 0.0656977 19.4371 -0.000107443 19.6028 -0.000107422C19.7975 -0.000107422 19.9713 0.0908301 20.0885 0.22958ZM23.8928 6.19864L20.2272 2.22489V5.02739C20.2267 5.32541 20.3401 5.61236 20.5441 5.82958L20.5703 5.85583C20.6791 5.96454 20.8082 6.05074 20.9503 6.10951C21.0924 6.16828 21.2447 6.19846 21.3985 6.19833L23.8928 6.19864ZM28.4041 3.36583C28.3879 3.44616 28.3559 3.52247 28.3099 3.59031C28.264 3.65815 28.2049 3.71617 28.1363 3.76098C28.0677 3.8058 27.9909 3.83652 27.9103 3.85135C27.8297 3.86619 27.747 3.86484 27.6669 3.84739C27.5868 3.83117 27.5107 3.79933 27.443 3.75368C27.3752 3.70804 27.3171 3.64948 27.2719 3.58137C27.2268 3.51326 27.1956 3.43692 27.1799 3.35672C27.1643 3.27651 27.1647 3.19402 27.181 3.11396L27.4197 1.97739L27.7319 0.49833C27.761 0.357544 27.8377 0.231068 27.949 0.140177C28.0604 0.0492866 28.1997 -0.000473379 28.3435 -0.000732422H30.5297C30.8463 -0.000732422 31.1069 0.233643 31.15 0.541455L31.6097 2.72771C31.9307 2.81895 32.2432 2.92739 32.5466 3.05302C32.8547 3.17896 33.1538 3.32646 33.44 3.48708L35.3532 2.2377C35.4725 2.16076 35.6146 2.12698 35.7558 2.14199C35.8971 2.15699 36.0289 2.21989 36.1294 2.32021H36.1341L36.9063 3.09239C36.9147 3.10552 36.9278 3.11427 36.9369 3.12708L37.6785 3.86895C37.895 4.08145 37.9172 4.41989 37.7482 4.6627L36.5116 6.55802C36.6757 6.84671 36.8221 7.14519 36.9497 7.45177C37.0713 7.75521 37.1797 8.06771 37.2707 8.38864L39.5003 8.86146C39.647 8.89013 39.7784 8.97093 39.8701 9.08892C39.9618 9.2069 40.0078 9.35411 39.9994 9.50333V11.6555C39.9994 11.9721 39.7653 12.2368 39.4572 12.2758L37.271 12.7355C37.1817 13.0536 37.0745 13.3664 36.95 13.6724C36.7712 14.1041 36.5549 14.5193 36.3038 14.9133C36.2604 14.9833 36.2035 15.044 36.1364 15.0918C36.0693 15.1396 35.9934 15.1735 35.9131 15.1917C35.8327 15.2098 35.7496 15.2118 35.6685 15.1975C35.5874 15.1832 35.5099 15.1529 35.4407 15.1083C35.3009 15.0191 35.2023 14.878 35.1665 14.7161C35.1307 14.5542 35.1606 14.3847 35.2497 14.2449C35.6685 13.5869 35.9722 12.8624 36.1478 12.1024C36.1685 11.9788 36.2259 11.8642 36.3126 11.7737C36.3992 11.6832 36.5112 11.6209 36.6338 11.5949L38.75 11.1524V10.5624H38.7544V9.97677L36.6332 9.52989C36.5161 9.50543 36.4084 9.44788 36.3231 9.36407C36.2377 9.28026 36.1782 9.17371 36.1516 9.05708C36.0674 8.67128 35.9483 8.2939 35.796 7.92958C35.6443 7.56458 35.4613 7.21338 35.2491 6.87989C35.1861 6.77888 35.153 6.66206 35.1538 6.54301C35.1546 6.42396 35.1891 6.30757 35.2535 6.20739L36.4382 4.39427L36.056 4.00833C36.0432 3.99989 36.0347 3.99083 36.0213 3.97771L35.605 3.56146L33.8307 4.71958C33.7296 4.7971 33.6072 4.8416 33.48 4.84702C33.3528 4.85244 33.227 4.81853 33.1197 4.74989C32.7861 4.53798 32.4349 4.35513 32.07 4.20333C31.7145 4.05631 31.3474 3.93883 30.9725 3.85208C30.8491 3.832 30.7348 3.77469 30.6449 3.68785C30.555 3.601 30.4938 3.48876 30.4694 3.36614L30.0219 1.24896H28.8463L28.6425 2.22927L28.4041 3.36583ZM29.4366 6.69302C29.0894 6.69302 28.8116 6.41521 28.8116 6.06833C28.8116 5.72146 29.0894 5.44364 29.4366 5.44364C30.8503 5.44364 32.13 6.01646 33.0585 6.94458C33.5339 7.41933 33.9108 7.98333 34.1677 8.60419C34.4245 9.22504 34.5561 9.89052 34.555 10.5624C34.5559 10.9299 34.5166 11.2965 34.4378 11.6555C34.3594 12.0138 34.2433 12.3627 34.0913 12.6965C34.0221 12.8471 33.896 12.9641 33.7406 13.0219C33.5852 13.0796 33.4133 13.0734 33.2625 13.0046C33.1884 12.9704 33.1218 12.922 33.0664 12.8621C33.0111 12.8021 32.9681 12.7319 32.9399 12.6553C32.9117 12.5787 32.8989 12.4974 32.9022 12.4158C32.9055 12.3343 32.9248 12.2542 32.9591 12.1802C33.0716 11.9374 33.1585 11.6727 33.2191 11.3949C33.2757 11.1261 33.306 10.8483 33.306 10.5621C33.306 9.49489 32.8722 8.52739 32.1738 7.82489C31.4472 7.10014 30.4628 6.69309 29.4366 6.69302Z" fill="#1FA8AD"/>
<path d="M22.3355 23.7368H26.4605C26.7862 23.7368 27.0809 23.8712 27.2937 24.0834L27.298 24.0878C27.5198 24.3101 27.6445 24.6112 27.6449 24.9253V29.4974C27.6449 30.3909 27.2809 31.2021 26.6905 31.7918C26.1052 32.3821 25.2896 32.7465 24.3959 32.7465C23.5021 32.7465 22.6909 32.3821 22.1012 31.7918C21.5152 31.2021 21.1465 30.3912 21.1465 29.4974V24.9253C21.1465 24.5999 21.2812 24.3003 21.498 24.0878V24.0834C21.721 23.8625 22.0217 23.7381 22.3355 23.7368ZM26.3959 24.9862H22.4005V29.4974C22.4001 29.7595 22.4516 30.0191 22.5521 30.2611C22.6526 30.5031 22.8002 30.7228 22.9862 30.9074C23.1707 31.0937 23.3903 31.2417 23.6322 31.3429C23.8741 31.4441 24.1336 31.4965 24.3959 31.4971C24.6588 31.497 24.9191 31.4448 25.1618 31.3436C25.4045 31.2424 25.6248 31.0942 25.8099 30.9074C26.1841 30.5335 26.3948 30.0264 26.3959 29.4974V24.9862Z" fill="#1FA8AD"/>
<path d="M24.3957 30.0392C24.7407 30.0392 25.0204 29.7595 25.0204 29.4145C25.0204 29.0695 24.7407 28.7898 24.3957 28.7898C24.0507 28.7898 23.771 29.0695 23.771 29.4145C23.771 29.7595 24.0507 30.0392 24.3957 30.0392Z" fill="#1FA8AD"/>
</g>
<defs>
<clipPath id="clip0_3205_178">
<rect width="40" height="40" fill="white"/>
</clipPath>
</defs>
</svg>
