<svg width="40" height="40" viewBox="0 0 40 40" fill="none" xmlns="http://www.w3.org/2000/svg">
<g clip-path="url(#clip0_3205_207)">
<mask id="mask0_3205_207" style="mask-type:luminance" maskUnits="userSpaceOnUse" x="0" y="0" width="40" height="40">
<path d="M0 0.000118256H39.9999V40H0V0.000118256Z" fill="white"/>
</mask>
<g mask="url(#mask0_3205_207)">
<path d="M32.8464 10.6154H35.5808C36.8019 10.6154 37.7917 11.6052 37.7917 12.8255V34.4622H2.20898V12.8255C2.20898 11.6052 3.19883 10.6154 4.41992 10.6154H7.15428" stroke="#1FA8AD" stroke-miterlimit="10" stroke-linecap="round" stroke-linejoin="round"/>
<path d="M8.03632 31.7278H4.94336V13.3497H11.3637" stroke="#1FA8AD" stroke-miterlimit="10" stroke-linecap="round" stroke-linejoin="round"/>
<path d="M28.637 13.3497H35.0573V31.7278H10.38" stroke="#1FA8AD" stroke-miterlimit="10" stroke-linecap="round" stroke-linejoin="round"/>
<path d="M22.106 36.7183H17.8947C16.685 36.7183 15.7045 35.7376 15.7045 34.528V34.4619H24.2962V34.528C24.2962 35.7376 23.3156 36.7183 22.106 36.7183Z" stroke="#1FA8AD" stroke-miterlimit="10" stroke-linecap="round" stroke-linejoin="round"/>
<path d="M39.4143 34.4618H0.586304V35.7605C0.586304 37.5356 2.02528 38.9746 3.80043 38.9746H36.2001C37.9753 38.9746 39.4143 37.5356 39.4143 35.7605V34.4618Z" stroke="#1FA8AD" stroke-miterlimit="10" stroke-linecap="round" stroke-linejoin="round"/>
<path d="M28.637 12.8452V16.1457C28.637 18.1173 27.4596 19.9065 25.639 20.6633C22.0339 22.1617 17.9668 22.1617 14.3618 20.6633C12.5411 19.9065 11.3636 18.1173 11.3636 16.1457V12.8452" stroke="#1FA8AD" stroke-miterlimit="10" stroke-linecap="round" stroke-linejoin="round"/>
<path d="M25.2362 3.3582L32.8979 7.41678C34.1698 8.09099 34.1698 9.91365 32.8979 10.5879L21.5675 16.5902C21.0846 16.8457 20.5466 16.9792 20.0003 16.9792C19.454 16.9792 18.916 16.8457 18.4331 16.5902L7.10271 10.5879C5.83084 9.91365 5.83084 8.09099 7.10271 7.41678L18.4331 1.41445C18.916 1.15896 19.454 1.02539 20.0003 1.02539C20.5466 1.02539 21.0846 1.15896 21.5675 1.41445L23.1894 2.27382" stroke="#1FA8AD" stroke-miterlimit="10" stroke-linecap="round" stroke-linejoin="round"/>
<path d="M20.0004 9.00261L25.0407 14.7502V22.5388" stroke="#1FA8AD" stroke-miterlimit="10" stroke-linecap="round" stroke-linejoin="round"/>
<path d="M25.0406 22.5388L23.7691 24.7409C23.3104 25.5357 23.8838 26.5291 24.8015 26.5291H25.2797C26.1973 26.5291 26.7708 25.5357 26.312 24.7409L25.0406 22.5388Z" stroke="#1FA8AD" stroke-miterlimit="10" stroke-linecap="round" stroke-linejoin="round"/>
<path d="M7.86157 28.9934H19.5917" stroke="#1FA8AD" stroke-miterlimit="10" stroke-linecap="round" stroke-linejoin="round"/>
<path d="M7.86157 26.5291H15.7045" stroke="#1FA8AD" stroke-miterlimit="10" stroke-linecap="round" stroke-linejoin="round"/>
</g>
</g>
<defs>
<clipPath id="clip0_3205_207">
<rect width="40" height="40" fill="white"/>
</clipPath>
</defs>
</svg>
